<?xml version="1.0" encoding="UTF-8" standalone="no"?>
<svg width="1000px" height="283px" viewBox="0 0 1000 283" version="1.1" xmlns="http://www.w3.org/2000/svg" xmlns:xlink="http://www.w3.org/1999/xlink" xmlns:sketch="http://www.bohemiancoding.com/sketch/ns">
    <!-- Generator: Sketch 3.1 (8751) - http://www.bohemiancoding.com/sketch -->
    <title>path4428</title>
    <desc>Created with Sketch.</desc>
    <defs></defs>
    <g id="Page-1" stroke="none" stroke-width="1" fill="none" fill-rule="evenodd" sketch:type="MSPage">
        <g id="logo" sketch:type="MSLayerGroup" transform="translate(-118.000000, -3132.000000)" fill="#FFFFFF">
            <g id="layer1" transform="translate(-0.062500, 0.147000)" sketch:type="MSShapeGroup">
                <path d="M175.8038,3132.353 C166.6682,3132.353 154.8238,3142.041 147.8373,3148.4886 C132.476,3162.1247 118.5625,3187.1962 118.5625,3207.3195 C118.5625,3235.9147 142.8822,3246.7089 149.033,3246.7089 C151.0607,3246.7089 152.7891,3245.6625 152.7891,3242.9106 C152.7891,3240.7539 151.4202,3238.9591 150.0599,3237.1148 C144.4278,3228.5045 142.6182,3220.2881 142.6182,3209.2046 C142.6182,3186.0973 153.2753,3164.9175 162.1159,3155.227 C163.7452,3153.4734 167.4295,3149.6844 168.5308,3149.6844 C169.6243,3149.6844 169.8954,3150.5743 169.8954,3153.3279 L168.8684,3304.5692 C168.8684,3328.2112 162.0456,3337.6048 162.0456,3343.1708 C162.0456,3345.6166 163.1033,3346.2516 165.1264,3346.2516 C174.701,3346.2516 184.2426,3334.5826 186.9454,3330.327 C195.3276,3315.8502 197.3835,3304.5464 197.3835,3271.9463 L197.3835,3144.8591 C197.3835,3141.4188 196.4182,3139.9333 193.1492,3137.8113 C188.3726,3134.7764 182.8969,3132.353 175.8038,3132.353 L175.8038,3132.353 Z M449.54613,3132.775 C445.04315,3132.775 443.11827,3135.128 442.9062,3142.4114 L441.9074,3172.5724 L415.53056,3171.658 C413.93142,3171.617 413.20592,3172.1223 412.50602,3173.529 C410.26567,3177.7306 409.08758,3181.0209 409.08758,3186.4994 C409.08758,3190.9617 411.11125,3191.4371 412.91398,3191.4371 L440.35996,3192.2249 L440.27556,3249.846 C440.27556,3262.0669 432.56395,3277.9218 418.87867,3291.1064 C418.87867,3291.1064 420.05498,3287.1247 419.99002,3282.9472 C419.99002,3271.1244 412.37894,3260.4107 402.23664,3252.8284 L377.47758,3234.2028 C382.6678,3228.1987 391.46082,3216.2901 391.46082,3206.2363 C391.46082,3198.4412 386.55859,3195.165 377.42131,3195.165 C364.52342,3195.165 349.5674,3206.978 349.5674,3224.4961 C349.5674,3230.8815 352.408,3236.6298 356.7278,3241.0256 C350.765,3252.3409 342.3261,3267.2275 336.0624,3277.8265 C331.3294,3285.9442 323.3244,3298.3794 318.5904,3298.3794 C315.0981,3298.3794 313.4838,3292.885 313.4838,3271.7775 C313.4838,3254.2404 314.7296,3235.1745 315.3548,3216.8714 C315.3548,3212.6765 314.6652,3208.8057 309.2213,3205.0124 C304.2117,3201.8023 298.0237,3197.3174 291.6508,3197.3174 C277.4825,3197.3174 267.8291,3210.3555 261.2085,3223.1034 C254.3578,3236.315 250.6526,3247.4482 245.4246,3263.6042 L246.0013,3208.0088 C246.1795,3204.0453 245.1785,3202.5061 242.0061,3201.1579 C237.8913,3199.4123 231.8345,3197.4018 226.4614,3197.4018 C221.9709,3197.4018 221.4251,3199.3362 221.4251,3204.0558 L220.8203,3270.7646 L220.7503,3296.4943 C220.7503,3319.6919 223.6553,3323.5605 237.4205,3323.5605 C245.0412,3323.5605 247.4835,3322.6659 247.6336,3316.3297 C247.842,3312.1386 249.846,3301.9886 252.5573,3291.8098 C260.4855,3261.7621 269.8815,3237.995 286.0805,3219.8819 C287.7704,3218.1248 289.0753,3218.7535 288.8096,3221.2465 C288.8096,3221.2465 286.2493,3261.9115 286.2493,3278.544 C286.2493,3308.1259 290.8012,3323.5605 305.5219,3323.5605 C319.9681,3323.5605 334.1553,3305.0015 341.9009,3292.471 L366.74437,3250.9152 C382.8431,3264.6332 394.07781,3275.2693 394.07781,3288.2085 C394.07781,3296.2503 389.00303,3304.119 381.27625,3304.119 C371.61656,3304.119 365.44534,3293.934 358.92275,3293.934 C353.5069,3293.934 346.5573,3304.3884 346.5573,3310.3228 C346.5573,3315.9273 358.78503,3323.8559 380.72761,3323.8559 C413.11796,3323.8559 430.49338,3301.6263 440.92308,3277.0106 C442.91973,3306.2266 454.55994,3323.2932 472.71596,3323.2932 C484.62536,3323.2932 498.38938,3308.2467 504.64952,3289.8684 C504.64952,3289.8684 505.26828,3294.6389 510.02337,3304.4144 C516.56795,3317.179 526.51815,3323.04 538.87611,3323.04 C554.24847,3323.04 567.39635,3313.7214 575.42386,3298.084 C576.64061,3309.9332 586.58905,3322.9837 602.58849,3322.9837 C612.63183,3322.9837 621.78841,3315.2886 627.79772,3302.6137 C627.79772,3302.6137 635.58333,3323.5464 658.09943,3323.5464 C670.747,3323.5464 685.72286,3311.8318 689.30148,3303.3171 L689.69537,3315.6967 L656.28471,3346.5048 C646.58449,3355.9213 636.26644,3369.4529 636.26644,3384.4312 C636.26644,3403.4824 654.25491,3414.4375 670.08507,3414.4375 C686.53958,3414.4375 697.45814,3404.0133 703.43947,3395.2774 C710.96692,3383.9749 714.14495,3362.6703 714.14495,3341.8484 L713.39936,3310.5338 C735.91599,3285.7827 753.53779,3251.5715 761.38411,3227.3659 L778.4763,3226.9157 C781.78689,3226.6936 781.6235,3227.9962 781.16322,3229.9262 C778.15891,3242.6202 775.53616,3256.9962 775.53616,3271.3132 C775.53616,3294.9664 780.98531,3305.259 788.81602,3313.6709 C795.62358,3320.7187 802.39646,3323.0962 809.5236,3323.0962 C823.4615,3323.0962 832.21079,3311.5863 834.98605,3304.33 C841.53062,3317.0946 851.17137,3323.04 863.52931,3323.04 C878.90166,3323.04 892.04954,3313.7214 900.07706,3298.084 C901.2938,3309.9332 911.24223,3322.9837 927.24169,3322.9837 C939.19493,3322.9837 946.12646,3316.0852 951.57872,3303.092 C951.69033,3307.2722 951.85099,3311.7278 951.97261,3315.9077 C952.1157,3318.0697 953.84446,3319.4374 955.39105,3320.0014 C960.47213,3321.9235 964.93204,3322.8852 968.9382,3322.8852 C979.38686,3322.8852 981.65535,3320.7391 981.65535,3313.9101 C981.65535,3302.6454 981.98511,3284.8453 985.18633,3270.5536 C988.58516,3256.3277 993.71247,3240.2192 1000.78735,3229.0118 C1001.42378,3227.8538 1002.98626,3228.1573 1003.05224,3229.5605 C1004.06802,3253.5405 1005.67305,3294.1327 1011.97113,3304.6395 C1015.0803,3309.6511 1019.88675,3313.3052 1027.07979,3313.3052 C1030.45416,3313.3052 1034.58714,3311.8663 1035.64699,3310.9699 C1036.71915,3310.1341 1037.25978,3309.2064 1037.19443,3307.4811 C1037.19443,3276.8271 1046.75259,3247.1507 1056.32643,3227.1971 C1056.5884,3226.6058 1057.33444,3226.5591 1057.31116,3227.3378 L1056.77659,3249.424 C1056.77659,3285.7007 1059.39184,3308.6192 1077.51231,3319.6356 C1080.28612,3321.1752 1084.18477,3322.6602 1089.17439,3322.6602 C1098.44535,3322.6602 1106.85255,3317.4818 1111.00738,3309.1552 C1114.39272,3302.6843 1117.5629,3290.2292 1117.5629,3283.1722 C1117.5629,3280.4405 1117.595,3275.9977 1113.11753,3275.9977 C1110.66241,3275.9977 1109.18809,3277.806 1108.60181,3280.5416 C1107.17482,3286.4658 1106.00336,3291.5485 1103.79068,3297.4087 C1101.67363,3303.0017 1098.51497,3306.2573 1094.77331,3306.2573 C1090.37417,3306.2573 1088.14371,3302.796 1086.86729,3300.6584 C1081.25316,3292.0992 1080.80414,3272.435 1080.80414,3256.0217 L1082.15463,3213.7766 C1082.15463,3210.2818 1080.69581,3206.0991 1075.30369,3203.0148 C1071.68342,3200.931 1062.52658,3197.0079 1056.91727,3197.0079 C1051.71547,3197.0079 1049.19799,3199.9557 1047.32313,3204.2809 C1043.80223,3212.0485 1032.03609,3242.5185 1028.88045,3267.2899 C1028.76748,3267.9431 1027.95503,3268.0807 1027.89571,3267.2479 C1026.2562,3249.73 1025.41425,3228.623 1025.43387,3214.3817 C1025.43387,3210.0775 1024.38076,3203.9223 1015.2489,3199.9342 C1010.81221,3198.0933 1007.13951,3196.9659 1002.65835,3196.9659 C997.09494,3196.9659 995.90016,3199.6882 993.90827,3203.2964 C987.607,3214.9375 983.24973,3230.1205 976.71761,3249.2694 L976.81611,3205.4487 C976.81611,3203.3996 975.56035,3200.7127 971.96277,3199.9905 C963.04247,3197.9414 958.90857,3197.0081 955.39108,3197.0081 C952.83145,3197.0081 951.424,3199.0498 951.424,3201.2566 L950.9457,3275.9698 C949.22062,3285.118 942.22736,3306.9468 932.30607,3306.9468 C924.16373,3306.9468 920.36264,3298.6968 920.36264,3264.2093 L921.83974,3208.1638 C921.83974,3204.6233 919.51499,3203.1349 916.12827,3201.6364 C911.28582,3199.7126 907.43233,3198.9495 902.51079,3198.9495 C896.33319,3198.9495 894.21238,3201.9066 895.4629,3209.0078 C888.67127,3199.8209 881.88273,3194.7432 869.88791,3194.7432 C845.80839,3194.7432 827.65683,3223.7088 827.65683,3265.7989 C827.41969,3277.6021 830.27342,3289.3341 830.27342,3289.3341 C828.09448,3299.1299 822.97223,3307.1156 815.89628,3307.1156 C806.96921,3307.1156 801.27999,3294.4945 801.27999,3272.6217 C801.27999,3250.6842 809.63617,3225.9414 809.63617,3219.235 C809.63617,3211.4377 804.52743,3206.5038 795.48412,3206.5038 C790.95246,3206.5038 774.1492,3210.3159 765.5341,3211.5681 C765.5341,3211.5681 766.5045,3207.4658 766.43443,3204.2389 C766.43443,3196.5489 762.82611,3191.7327 753.87202,3191.7327 C742.92707,3191.7327 734.89476,3199.547 734.89476,3212.8764 C734.89476,3218.8593 738.33954,3224.391 742.89925,3227.3661 C736.97998,3252.0535 727.35572,3270.4125 713.17431,3290.9238 L714.37006,3207.8684 C714.37006,3205.168 713.65167,3203.4915 708.36317,3201.4394 C705.56665,3200.2314 701.01028,3198.8369 695.26619,3198.8369 C686.94161,3198.8369 687.49047,3204.7824 687.93695,3209.2329 C684.12801,3202.4789 675.78796,3194.4619 662.92467,3194.4619 C627.86728,3194.4619 617.10312,3247.9211 622.3817,3285.8875 C622.3817,3290.5164 617.86311,3306.9468 607.65288,3306.9468 C599.51057,3306.9468 595.70944,3298.6968 595.70944,3264.2093 L597.20061,3208.1638 C597.20061,3204.6233 594.86181,3203.1349 591.47508,3201.6364 C586.63261,3199.7126 582.79318,3198.9495 577.87166,3198.9495 C571.69405,3198.9495 569.57326,3201.9066 570.82377,3209.0078 C564.03214,3199.8209 557.22954,3194.7432 545.23472,3194.7432 C521.15518,3194.7432 502.76449,3221.2329 502.76449,3263.323 C502.76449,3279.3906 488.93021,3303.9082 479.22931,3303.9082 C473.8401,3303.9082 468.1018,3294.0156 468.1018,3268.7391 C468.1294,3251.5101 470.47924,3192.8582 470.47924,3192.8582 L504.34007,3192.3096 C505.95677,3192.2946 506.892,3190.5277 507.49122,3189.4398 C509.04652,3186.2853 509.79831,3184.1842 509.79831,3180.4084 C509.79831,3177.0014 509.11671,3175.7577 504.74803,3175.5129 L470.99974,3173.4871 L472.43464,3142.0459 C472.53444,3140.0597 471.3382,3138.7665 469.17094,3137.7975 C462.63223,3135.2454 454.621,3132.7753 449.54657,3132.7753 L449.54613,3132.775 Z M552.02895,3215.1552 C561.05714,3215.1552 570.21842,3223.3902 570.21842,3252.6033 C570.21842,3289.3853 556.81796,3306.4964 546.51444,3306.4964 C536.85413,3306.4964 529.52072,3292.8621 529.52072,3266.0801 C529.52072,3239.0084 536.68169,3215.1552 552.02895,3215.1552 L552.02895,3215.1552 Z M877.16045,3215.1552 C886.18864,3215.1552 895.34992,3223.3902 895.34992,3252.6033 C895.34992,3289.3853 881.94945,3306.4964 871.64593,3306.4964 C861.98562,3306.4964 854.65221,3292.8621 854.65221,3266.0801 C854.65221,3239.0084 861.81319,3215.1552 877.16045,3215.1552 L877.16045,3215.1552 Z M670.94279,3215.324 C682.72523,3215.324 687.93651,3227.4669 687.93651,3251.0136 C687.93651,3286.5103 677.38564,3306.7215 664.57014,3306.7215 C656.38895,3306.7215 646.98241,3293.2888 647.47795,3266.8679 C647.47795,3249.9731 652.98646,3215.324 670.94279,3215.324 L670.94279,3215.324 Z M690.89071,3334.069 L690.89071,3348.0522 C690.89071,3394.4483 678.52736,3402.3675 668.59349,3402.3675 C664.83089,3402.3675 655.60905,3399.526 655.60905,3388.0466 C655.60905,3372.0016 672.3843,3353.7483 677.59679,3348.1085 L690.89071,3334.069 L690.89071,3334.069 Z" id="path4428"></path>
            </g>
        </g>
    </g>
</svg>